<svg width="32" height="32" viewBox="0 0 32 32" fill="none" xmlns="http://www.w3.org/2000/svg">
<path d="M11.3203 15.682V7.7187C11.3203 6.89397 11.7476 6.21045 12.4472 5.863C13.0307 5.57338 13.7314 5.55368 14.4067 5.78923V5.09224C14.4068 4.26751 14.8338 3.58386 15.5335 3.23655C16.1359 2.93768 16.8643 2.92394 17.5594 3.1844L17.855 3.31286L17.9527 3.36119L18.0286 3.43751C18.365 3.7715 18.5558 4.11296 18.6687 4.44103C19.2618 4.16469 19.9688 4.15664 20.6458 4.4105L20.9414 4.53896L21.039 4.5873L21.115 4.66234C21.9272 5.46888 21.9137 6.31312 21.9137 6.93012V8.05066C22.4718 7.84209 23.1136 7.85501 23.7307 8.08627L24.0264 8.21473L24.1186 8.26942C24.1476 8.29013 24.1748 8.31314 24.1999 8.33811C25.0125 9.14473 25 9.9888 25 10.6059V21.0214C24.9999 25.6219 21.6502 28.9998 16.9262 29H13.8398C11.9423 29 10.2301 28.1337 9.00557 26.8823C7.78239 25.6323 7 23.9533 7 22.2463V17.3456C7 16.521 7.42735 15.8374 8.12686 15.49C8.72954 15.1908 9.45869 15.1771 10.1541 15.4378L10.4497 15.5663L10.5623 15.6375C10.5973 15.6646 10.63 15.6944 10.6586 15.7278L13.1266 18.6163C13.3574 18.8864 13.3115 19.2812 13.0235 19.4977C12.7356 19.714 12.3145 19.6698 12.0838 19.3998L9.71071 16.6245C9.30654 16.4565 8.96903 16.4901 8.752 16.5978C8.52635 16.71 8.33705 16.9456 8.33705 17.3456V22.2463C8.33705 23.6024 8.96507 24.9878 9.99005 26.0352C11.0136 27.081 12.3874 27.7459 13.8398 27.7459H16.9262C20.8416 27.7457 23.6629 24.9975 23.6629 21.0214V10.6059C23.6629 10.0356 23.649 9.66713 23.2995 9.27804C22.8902 9.10442 22.5491 9.13748 22.33 9.24624C22.1041 9.35835 21.9137 9.59374 21.9137 9.99411V14.2817H20.578V6.93012C20.578 6.35927 20.5636 5.99046 20.2132 5.60099C19.8042 5.42785 19.4626 5.46179 19.2436 5.57047C19.018 5.68267 18.8287 5.91825 18.8287 6.31834V14.2817H17.4916V5.70529C17.4916 5.13449 17.4782 4.76551 17.1282 4.37616C16.7192 4.20275 16.3778 4.2358 16.1587 4.34436C15.9329 4.45643 15.7425 4.69211 15.7423 5.09224V14.2817H14.4067V8.33048L14.3972 7.91329C14.3756 7.56115 14.299 7.28718 14.0419 7.00135C13.6329 6.82813 13.2913 6.86213 13.0723 6.97082C12.8466 7.083 12.6574 7.31854 12.6574 7.7187V15.682C12.6574 16.0281 12.3578 16.3089 11.9888 16.3091C11.6198 16.3091 11.3203 16.0282 11.3203 15.682Z" fill="#F0D08A" fill-opacity="0.95"/>
</svg>
